<svg xmlns="http://www.w3.org/2000/svg" xmlns:xlink="http://www.w3.org/1999/xlink" width="500" zoomAndPan="magnify" viewBox="0 0 375 374.999991" height="500" preserveAspectRatio="xMidYMid meet" version="1.0"><defs><g/><clipPath id="id1"><path d="M 56.097656 37.5 L 318.597656 37.5 L 318.597656 300 L 56.097656 300 Z M 56.097656 37.5 " clip-rule="nonzero"/></clipPath></defs><g clip-path="url(#id1)"><path fill="rgb(19.999695%, 19.999695%, 19.999695%)" d="M 187.347656 37.5 C 259.835938 37.5 318.597656 96.261719 318.597656 168.75 C 318.597656 241.238281 259.835938 300 187.347656 300 C 114.863281 300 56.097656 241.238281 56.097656 168.75 C 56.097656 96.261719 114.863281 37.5 187.347656 37.5 " fill-opacity="1" fill-rule="evenodd"/></g><path fill="rgb(92.158508%, 93.728638%, 94.509888%)" d="M 180.839844 192.414062 C 173.914062 181.796875 169.820312 171.183594 167.617188 163.3125 C 165.605469 164.089844 163.222656 164.800781 160.636719 165.507812 C 154.105469 179.671875 155.5 199.808594 160.945312 213.722656 C 165.277344 213.398438 168.957031 216.800781 168.957031 221.117188 C 168.957031 225.210938 165.625 228.53125 161.515625 228.53125 C 154.9375 228.53125 151.644531 220.644531 156.148438 215.976562 C 150.515625 201.785156 148.933594 182.261719 154.230469 167.222656 C 144.28125 169.90625 133.550781 173.285156 129.984375 180.480469 C 123.519531 193.453125 121.015625 234.078125 121.035156 250.265625 L 253.664062 250.265625 C 253.683594 233.9375 251.261719 193.621094 244.714844 180.480469 C 241.367188 173.730469 231.71875 170.335938 222.324219 167.730469 C 223.125 172.917969 222.660156 178.476562 221.382812 184.039062 C 228.070312 186.753906 232.203125 193.4375 230.863281 201.914062 C 229.046875 213.421875 231.554688 234.171875 216.742188 230.855469 C 213.339844 230.09375 214.5 224.9375 217.90625 225.703125 C 221.253906 226.449219 222.742188 224.183594 223.535156 220.664062 C 224.664062 215.652344 224.679688 207.125 225.632812 201.109375 C 227.855469 187.03125 208.96875 182.773438 204.929688 196.460938 C 203.222656 202.234375 199.5625 209.960938 198.417969 215.039062 C 197.625 218.558594 197.992188 221.242188 201.339844 221.992188 C 204.742188 222.753906 203.582031 227.90625 200.179688 227.144531 C 185.382812 223.828125 196.519531 206.21875 199.839844 194.96875 C 202.289062 186.671875 208.992188 182.417969 216.210938 182.863281 C 217.523438 177.160156 217.941406 171.398438 216.609375 166.195312 C 213.046875 165.25 209.738281 164.339844 207.082031 163.3125 C 205.128906 170.4375 200.558594 181.710938 193.722656 192.40625 L 191.289062 178.84375 L 193.109375 174.476562 L 187.28125 169.597656 L 181.457031 174.476562 L 183.277344 178.84375 Z M 218.753906 116.21875 C 220.285156 115.941406 221.707031 116.199219 222.175781 117.875 C 223.765625 123.566406 218.703125 131.507812 214.003906 131.027344 C 200.410156 165.398438 174.28125 165.402344 160.6875 131.027344 C 156.058594 131.492188 150.925781 123.566406 152.519531 117.875 C 152.984375 116.203125 154.402344 115.941406 155.929688 116.214844 C 154.5625 110.234375 153.855469 102.835938 155.160156 96.824219 C 160.734375 71.117188 206.730469 66.660156 209.289062 83.101562 C 221.714844 87.238281 222.347656 100.652344 218.753906 116.21875 Z M 218.753906 116.21875 " fill-opacity="1" fill-rule="evenodd"/><g fill="rgb(0%, 0%, 0%)" fill-opacity="1"><g transform="translate(63.005926, 347.624977)"><g><path d="M 20.992188 0 L 24.410156 0 L 13.839844 -25.164062 L 10.890625 -25.164062 L 0.609375 0 L 3.953125 0 L 6.398438 -6.003906 L 18.511719 -6.003906 Z M 12.402344 -20.8125 L 17.328125 -8.914062 L 7.585938 -8.914062 Z M 12.402344 -20.8125 "/></g></g></g><g fill="rgb(0%, 0%, 0%)" fill-opacity="1"><g transform="translate(90.645837, 347.624977)"><g><path d="M 13.371094 -19.808594 C 10.246094 -19.808594 7.585938 -18.550781 5.789062 -16.429688 L 5.175781 -19.410156 L 3.054688 -19.410156 L 3.054688 6.9375 L 6.109375 6.9375 L 6.109375 -2.589844 C 7.910156 -0.683594 10.460938 0.429688 13.371094 0.429688 C 19.160156 0.429688 23.328125 -3.917969 23.328125 -9.707031 C 23.328125 -15.492188 19.160156 -19.808594 13.371094 -19.808594 Z M 13.15625 -2.515625 C 9.023438 -2.515625 6.003906 -5.609375 6.003906 -9.707031 C 6.003906 -13.769531 9.023438 -16.859375 13.15625 -16.859375 C 17.253906 -16.859375 20.273438 -13.804688 20.273438 -9.707031 C 20.273438 -5.570312 17.253906 -2.515625 13.15625 -2.515625 Z M 13.15625 -2.515625 "/></g></g></g><g fill="rgb(0%, 0%, 0%)" fill-opacity="1"><g transform="translate(118.141977, 347.624977)"><g><path d="M 13.371094 -19.808594 C 10.246094 -19.808594 7.585938 -18.550781 5.789062 -16.429688 L 5.175781 -19.410156 L 3.054688 -19.410156 L 3.054688 6.9375 L 6.109375 6.9375 L 6.109375 -2.589844 C 7.910156 -0.683594 10.460938 0.429688 13.371094 0.429688 C 19.160156 0.429688 23.328125 -3.917969 23.328125 -9.707031 C 23.328125 -15.492188 19.160156 -19.808594 13.371094 -19.808594 Z M 13.15625 -2.515625 C 9.023438 -2.515625 6.003906 -5.609375 6.003906 -9.707031 C 6.003906 -13.769531 9.023438 -16.859375 13.15625 -16.859375 C 17.253906 -16.859375 20.273438 -13.804688 20.273438 -9.707031 C 20.273438 -5.570312 17.253906 -2.515625 13.15625 -2.515625 Z M 13.15625 -2.515625 "/></g></g></g><g fill="rgb(0%, 0%, 0%)" fill-opacity="1"><g transform="translate(145.638117, 347.624977)"><g><path d="M 11.828125 0.429688 C 17.6875 0.429688 22.109375 -3.882812 22.109375 -9.707031 C 22.109375 -15.492188 17.6875 -19.808594 11.828125 -19.808594 C 5.929688 -19.808594 1.511719 -15.53125 1.511719 -9.707031 C 1.511719 -3.882812 5.929688 0.429688 11.828125 0.429688 Z M 11.828125 -2.515625 C 7.65625 -2.515625 4.636719 -5.535156 4.636719 -9.707031 C 4.636719 -13.839844 7.65625 -16.859375 11.828125 -16.859375 C 15.960938 -16.859375 18.980469 -13.839844 18.980469 -9.667969 C 18.980469 -5.535156 15.960938 -2.515625 11.828125 -2.515625 Z M 11.828125 -2.515625 "/></g></g></g><g fill="rgb(0%, 0%, 0%)" fill-opacity="1"><g transform="translate(171.912256, 347.624977)"><g><path d="M 2.949219 -22.753906 L 6.253906 -22.753906 L 6.253906 -26.242188 L 2.949219 -26.242188 Z M 3.054688 0 L 6.109375 0 L 6.109375 -19.410156 L 3.054688 -19.410156 Z M 3.054688 0 "/></g></g></g><g fill="rgb(0%, 0%, 0%)" fill-opacity="1"><g transform="translate(183.701993, 347.624977)"><g><path d="M 12.761719 -19.808594 C 9.777344 -19.808594 7.296875 -18.511719 5.824219 -16.355469 L 5.25 -19.410156 L 3.054688 -19.410156 L 3.054688 0 L 6.109375 0 L 6.109375 -10.570312 C 6.109375 -14.199219 8.664062 -17.039062 12.007812 -17.039062 C 15.347656 -17.039062 17.21875 -14.808594 17.21875 -10.890625 L 17.21875 0 L 20.273438 0 L 20.273438 -11.609375 C 20.273438 -16.355469 17.398438 -19.808594 12.761719 -19.808594 Z M 12.761719 -19.808594 "/></g></g></g><g fill="rgb(0%, 0%, 0%)" fill-opacity="1"><g transform="translate(209.365115, 347.624977)"><g><path d="M 11.109375 -2.804688 C 8.449219 -2.804688 7.007812 -4.242188 7.007812 -6.867188 L 7.007812 -16.644531 L 13.121094 -16.644531 L 13.121094 -19.410156 L 7.007812 -19.410156 L 7.007812 -23.507812 L 6.542969 -23.507812 L 0.539062 -17.183594 L 0.539062 -16.644531 L 3.953125 -16.644531 L 3.953125 -6.757812 C 3.953125 -2.550781 6.542969 0 10.710938 0 L 13.230469 0 L 13.230469 -2.804688 Z M 11.109375 -2.804688 "/></g></g></g><g fill="rgb(0%, 0%, 0%)" fill-opacity="1"><g transform="translate(226.186648, 347.624977)"><g><path d="M 32.785156 0 L 28.613281 -25.164062 L 25.488281 -25.164062 L 17.148438 -6.6875 L 8.84375 -25.164062 L 5.789062 -25.164062 L 1.546875 0 L 4.78125 0 L 8.089844 -19.628906 L 16.75 -0.609375 L 17.613281 -0.609375 L 26.277344 -19.628906 L 29.550781 0 Z M 32.785156 0 "/></g></g></g><g fill="rgb(0%, 0%, 0%)" fill-opacity="1"><g transform="translate(263.171318, 347.624977)"><g><path d="M 6.578125 -3.019531 L 6.578125 -11.46875 L 16.714844 -11.46875 L 16.714844 -14.378906 L 6.578125 -14.378906 L 6.578125 -22.144531 L 17.648438 -22.144531 L 17.648438 -25.164062 L 3.414062 -25.164062 L 3.414062 0 L 18.046875 0 L 18.046875 -3.019531 Z M 6.578125 -3.019531 "/></g></g></g><g fill="rgb(0%, 0%, 0%)" fill-opacity="1"><g transform="translate(285.635657, 347.624977)"><g><path d="M 11.789062 -25.164062 L 3.414062 -25.164062 L 3.414062 0 L 11.789062 0 C 19.195312 0 24.550781 -5.285156 24.550781 -12.582031 C 24.550781 -19.84375 19.195312 -25.128906 11.789062 -25.128906 Z M 11.71875 -2.949219 L 6.578125 -2.949219 L 6.578125 -22.179688 L 11.71875 -22.179688 C 17.363281 -22.179688 21.351562 -18.117188 21.351562 -12.582031 C 21.351562 -7.007812 17.363281 -2.949219 11.71875 -2.949219 Z M 11.71875 -2.949219 "/></g></g></g></svg>